<svg width="7" height="8" viewBox="0 0 7 8" fill="none" xmlns="http://www.w3.org/2000/svg">
<g opacity="0.7">
<path fill-rule="evenodd" clip-rule="evenodd" d="M0 3.3271C0 1.48716 1.53755 0 3.39738 0C5.26245 0 6.8 1.48716 6.8 3.3271C6.8 4.25428 6.4628 5.11505 5.9078 5.84463C5.29552 6.64941 4.54086 7.35059 3.69142 7.90097C3.497 8.02817 3.32155 8.03777 3.10818 7.90097C2.25389 7.35059 1.49923 6.64941 0.8922 5.84463C0.336793 5.11505 0 4.25428 0 3.3271ZM2.27767 3.4307C2.27767 4.04708 2.78065 4.53187 3.39736 4.53187C4.01448 4.53187 4.52229 4.04708 4.52229 3.4307C4.52229 2.81912 4.01448 2.31073 3.39736 2.31073C2.78065 2.31073 2.27767 2.81912 2.27767 3.4307Z" fill="white"/>
</g>
</svg>
