<svg width="42" height="42" viewBox="0 0 42 42" fill="none" xmlns="http://www.w3.org/2000/svg">
<g clip-path="url(#clip0_0_48)">
<path fill-rule="evenodd" clip-rule="evenodd" d="M4.89753 9.76031C7.60236 9.76031 9.79505 7.57539 9.79505 4.88015C9.79505 2.18492 7.60236 0 4.89753 0C2.1927 0 0 2.18492 0 4.88015C0 7.57539 2.1927 9.76031 4.89753 9.76031ZM22.9246 16.0459C22.9246 11.8397 26.8693 8.42993 31.7352 8.42993H36.212V0.000579726H31.7352C21.4837 0.000579726 13.1731 7.18433 13.1731 16.0459V25.9547C13.1731 30.1609 9.22848 33.5706 4.36252 33.5706H0V42H4.36252C14.6141 42 22.9246 34.8162 22.9246 25.9547V16.0459ZM9.79505 25.5673V12.7183H0V30.3164H5.04594C7.6688 30.3164 9.79505 28.1902 9.79505 25.5673ZM26.2686 15.8407C26.2686 13.2179 28.3948 11.0916 31.0177 11.0916H36.0685V20.2082H42V28.6578H36.0691C36.1151 31.3663 38.8478 33.5497 42 33.5497V41.9993C33.4068 41.9993 26.2686 35.993 26.2686 28.5837V15.8407Z" fill="white"/>
</g>
<defs>
<clipPath id="clip0_0_48">
<rect width="42" height="42" fill="white"/>
</clipPath>
</defs>
</svg>
