<svg width="8" height="7" viewBox="0 0 8 7" fill="none" xmlns="http://www.w3.org/2000/svg">
<g id="Message" opacity="0.7">
<path id="Message_2" fill-rule="evenodd" clip-rule="evenodd" d="M5.80961 0C6.33111 0 6.83278 0.206111 7.20183 0.575944C7.57128 0.945 7.77778 1.44278 7.77778 1.96389V5.03611C7.77778 6.12111 6.895 7 5.80961 7H1.96778C0.882389 7 0 6.12111 0 5.03611V1.96389C0 0.878889 0.8785 0 1.96778 0H5.80961ZM6.42831 2.54332L6.45942 2.51221C6.55236 2.39943 6.55236 2.2361 6.45514 2.12332C6.40108 2.06538 6.32681 2.02999 6.24942 2.02221C6.16775 2.01793 6.08997 2.04555 6.03125 2.09999L4.27775 3.49999C4.0522 3.68705 3.72903 3.68705 3.49997 3.49999L1.74997 2.09999C1.62903 2.01055 1.46181 2.02221 1.36108 2.12721C1.25608 2.23221 1.24442 2.39943 1.33347 2.5161L1.38442 2.56666L3.15386 3.94721C3.37164 4.11832 3.63569 4.21166 3.91219 4.21166C4.18792 4.21166 4.45664 4.11832 4.67403 3.94721L6.42831 2.54332Z" fill="white"/>
</g>
</svg>
